<svg xmlns="http://www.w3.org/2000/svg" version="1.1" xmlns:xlink="http://www.w3.org/1999/xlink" xmlns:svgjs="http://svgjs.dev/svgjs" width="1500" height="496" viewBox="0 0 1500 496"><g transform="matrix(1,0,0,1,-0.9085801925973556,0.3480528326533374)"><svg viewBox="0 0 396 131" data-background-color="#2e024e" preserveAspectRatio="xMidYMid meet" height="496" width="1500" xmlns="http://www.w3.org/2000/svg" xmlns:xlink="http://www.w3.org/1999/xlink"><g id="tight-bounds" transform="matrix(1,0,0,1,0.2398651708456896,-0.09192524410804026)"><svg viewBox="0 0 395.52 131.18385048821608" height="131.18385048821608" width="395.52"><g><svg viewBox="0 0 707.7970454432657 234.75814569536422" height="131.18385048821608" width="395.52"><g><svg viewBox="0 0 395.52 234.75814569536422" height="234.75814569536422" width="395.52"><g id="textblocktransform"><svg viewBox="0 0 395.52 234.75814569536422" height="234.75814569536422" width="395.52" id="textblock"><g><svg viewBox="0 0 395.52 234.75814569536422" height="234.75814569536422" width="395.52"><g transform="matrix(1,0,0,1,0,0)"><svg width="395.52" viewBox="1.65 -35.85 60.4 35.85" height="234.75814569536422" data-palette-color="#d579ff"><g class="wordmark-text-0" data-fill-palette-color="primary" id="text-0"><path d="M26.8 0L5.25 0 5.25-35.85 10.15-35.85 10.15-4.1 26.8-4.1 26.8 0ZM26.8-4.1L22.7-2.85 23.45-7.85Q23.55-8.3 23.83-8.47 24.1-8.65 24.5-8.65L24.5-8.65 26.8-8.65 26.8-4.1ZM6.75 0L1.65 0 1.65-2.05Q1.65-2.5 1.85-2.78 2.05-3.05 2.45-3.1L2.45-3.1 6.2-3.9 6.75 0ZM1.65-35.85L6.75-35.85 6.2-31.95 2.45-32.75Q2.05-32.85 1.85-33.1 1.65-33.35 1.65-33.8L1.65-33.8 1.65-35.85ZM8.7-35.85L13.8-35.85 13.8-33.8Q13.8-33.35 13.6-33.1 13.4-32.85 13-32.75L13-32.75 9.25-31.95 8.7-35.85ZM37.4 0L32.55 0 32.55-35.85 37.4-35.85 37.4-20.15 39.2-20.15Q40.15-20.15 40.72-20.38 41.3-20.6 41.8-21.2L41.8-21.2 53.7-34.7Q54.25-35.3 54.77-35.58 55.3-35.85 56.1-35.85L56.1-35.85 60.2-35.85 46.55-20.4Q46.05-19.85 45.57-19.45 45.1-19.05 44.6-18.8L44.6-18.8Q45.3-18.55 45.82-18.1 46.35-17.65 46.9-17L46.9-17 61.15 0 56.95 0Q56.15 0 55.65-0.28 55.15-0.55 54.75-1.05L54.75-1.05 42.4-15.25Q41.75-15.95 41.27-16.18 40.8-16.4 39.6-16.4L39.6-16.4 37.4-16.4 37.4 0ZM56.65-31.95L55.95-31.8 54.9-33.45 54.9-35.85 60.7-35.85 56.65-31.95ZM57.5-3.9L56.95 0 54.55-4.55 57.5-3.9ZM34.05 0L28.95 0 28.95-2.05Q28.95-2.5 29.15-2.78 29.35-3.05 29.75-3.1L29.75-3.1 33.5-3.9 34.05 0ZM41.05 0L35.95 0 36.5-3.9 40.25-3.1Q40.65-3.05 40.85-2.78 41.05-2.5 41.05-2.05L41.05-2.05 41.05 0ZM28.95-35.85L34.05-35.85 33.5-31.95 29.75-32.75Q29.35-32.85 29.15-33.1 28.95-33.35 28.95-33.8L28.95-33.8 28.95-35.85ZM35.95-35.85L41.05-35.85 41.05-33.8Q41.05-33.35 40.85-33.1 40.65-32.85 40.25-32.75L40.25-32.75 36.5-31.95 35.95-35.85ZM62.05 0L56.95 0 57.5-3.9 61.25-3.1Q61.65-3.05 61.85-2.78 62.05-2.5 62.05-2.05L62.05-2.05 62.05 0ZM56.1-35.85L61.2-35.85 61.2-33.8Q61.2-33.35 61-33.1 60.8-32.85 60.4-32.75L60.4-32.75 56.65-31.95 56.1-35.85ZM50.25-35.85L55.35-35.85 54.8-31.95 51.05-32.75Q50.65-32.85 50.45-33.1 50.25-33.35 50.25-33.8L50.25-33.8 50.25-35.85Z" fill="#d579ff" data-fill-palette-color="primary"></path></g></svg></g></svg></g></svg></g></svg></g><g transform="matrix(1,0,0,1,506.3615280063576,16.661314129228074)"><svg viewBox="0 0 201.43551743690807 201.43551743690807" height="201.43551743690807" width="201.43551743690807"><g><svg></svg></g><g id="icon-0"><svg viewBox="0 0 201.43551743690807 201.43551743690807" height="201.43551743690807" width="201.43551743690807"><g><path d="M0 100.718c0-55.625 45.093-100.718 100.718-100.718 55.625 0 100.718 45.093 100.718 100.718 0 55.625-45.093 100.718-100.718 100.718-55.625 0-100.718-45.093-100.718-100.718zM100.718 180.265c43.933 0 79.547-35.614 79.547-79.547 0-43.933-35.614-79.547-79.547-79.547-43.933 0-79.547 35.614-79.547 79.547 0 43.933 35.614 79.547 79.547 79.547z" data-fill-palette-color="accent" fill="#ffffff" stroke="transparent"></path></g><g transform="matrix(1,0,0,1,66.1987957438664,66.19770513178544)"><svg viewBox="0 0 69.03792594917527 69.04010717333719" height="69.04010717333719" width="69.03792594917527"><g><svg xmlns="http://www.w3.org/2000/svg" xmlns:xlink="http://www.w3.org/1999/xlink" version="1.1" x="0" y="0" viewBox="18.351000000000017 18.348 63.30200000000001 63.304" enable-background="new 0 0 100 100" xml:space="preserve" height="69.04010717333719" width="69.03792594917527" class="icon-cg-0" data-fill-palette-color="accent" id="cg-0"><g fill="#ffffff" data-fill-palette-color="accent"><path fill="#ffffff" d="M80.951 48.597c-4.329-3.261-9.009-4.911-13.907-4.911-0.107 0-0.213 0-0.32 0.002-0.104-0.002-0.212-0.002-0.318-0.002-0.431 0-0.857 0.029-1.283 0.054 0.399-0.354 0.792-0.717 1.168-1.103 3.598-3.496 5.814-8.047 6.587-13.531 0.078-0.548-0.105-1.098-0.496-1.487-0.391-0.39-0.941-0.573-1.488-0.497-5.482 0.773-10.035 2.99-13.529 6.589-0.384 0.373-0.744 0.764-1.097 1.161 0.032-0.53 0.054-1.062 0.046-1.597 0.073-5.016-1.579-9.801-4.91-14.227-0.331-0.44-0.851-0.7-1.401-0.7-0.552 0-1.072 0.26-1.404 0.7-3.33 4.425-4.981 9.211-4.909 14.227-0.008 0.535 0.014 1.066 0.045 1.597-0.352-0.396-0.713-0.788-1.097-1.161-3.493-3.599-8.045-5.816-13.529-6.589-0.549-0.076-1.098 0.107-1.487 0.497-0.39 0.391-0.574 0.941-0.498 1.487 0.774 5.484 2.99 10.036 6.588 13.531 0.375 0.386 0.769 0.748 1.168 1.103-0.427-0.024-0.854-0.054-1.284-0.054-0.107 0-0.213 0-0.319 0.002-0.106-0.002-0.212-0.002-0.321-0.002-4.898 0-9.577 1.65-13.905 4.911-0.44 0.332-0.7 0.851-0.7 1.402 0 0.553 0.259 1.071 0.7 1.403 4.329 3.26 9.008 4.91 13.908 4.91 0.106 0 0.212 0 0.318-0.002 0.106 0.002 0.223-0.006 0.318 0.002 0.432 0 0.859-0.029 1.288-0.053-0.399 0.354-0.793 0.717-1.168 1.104-3.599 3.494-5.816 8.047-6.59 13.529-0.077 0.547 0.107 1.096 0.498 1.486 0.331 0.332 0.779 0.516 1.242 0.516 0.081 0 0.163-0.006 0.246-0.018 5.484-0.773 10.036-2.99 13.529-6.588 0.384-0.373 0.745-0.766 1.097-1.162-0.031 0.531-0.053 1.062-0.045 1.598-0.073 5.016 1.579 9.801 4.909 14.227 0.332 0.441 0.853 0.701 1.404 0.701 0.551 0 1.07-0.26 1.402-0.701 3.33-4.426 4.982-9.211 4.909-14.227 0.008-0.535-0.014-1.066-0.046-1.596 0.353 0.396 0.712 0.789 1.097 1.16 3.494 3.598 8.046 5.814 13.529 6.588 0.082 0.012 0.165 0.018 0.246 0.018 0.461 0 0.91-0.184 1.242-0.516 0.391-0.391 0.574-0.939 0.496-1.486-0.772-5.484-2.99-10.037-6.588-13.529-0.375-0.387-0.77-0.75-1.169-1.104 0.428 0.023 0.855 0.053 1.286 0.053 0.107 0 0.213 0 0.317-0.002 0.106 0.002 0.213 0.002 0.318 0.002 0.001 0 0 0 0.001 0 4.899 0 9.579-1.65 13.908-4.91 0.44-0.332 0.7-0.85 0.7-1.403C81.651 49.448 81.392 48.929 80.951 48.597zM48.784 49.509l1.217-1.215 1.214 1.215-1.214 1.215L48.784 49.509zM59.828 36.215c0.013-0.014 0.026-0.027 0.039-0.04 2.41-2.489 5.449-4.198 9.058-5.099-0.901 3.607-2.61 6.646-5.099 9.057-0.014 0.012-0.027 0.027-0.04 0.04-2.411 2.489-5.449 4.198-9.057 5.099C55.63 41.665 57.339 38.624 59.828 36.215zM47.2 33.247c-0.054-3.464 0.886-6.822 2.801-10.009 1.914 3.187 2.854 6.545 2.799 10.008 0 0.02 0 0.039 0 0.058 0.056 3.463-0.885 6.82-2.799 10.008-1.915-3.188-2.854-6.544-2.801-10.009C47.2 33.285 47.2 33.266 47.2 33.247zM31.077 31.076c3.608 0.9 6.647 2.609 9.056 5.099 0.014 0.013 0.027 0.026 0.04 0.04 2.489 2.409 4.199 5.448 5.098 9.057-3.606-0.901-6.646-2.61-9.057-5.101-0.013-0.013-0.027-0.026-0.039-0.039C33.686 37.722 31.977 34.684 31.077 31.076zM33.303 52.799c-0.009 0-0.018 0-0.027 0s-0.019 0-0.029 0c-0.096 0.002-0.192 0.004-0.289 0.004-3.361 0-6.62-0.941-9.72-2.803 3.099-1.861 6.358-2.801 9.717-2.801 0.098 0 0.195 0 0.292 0.002 0.019 0.001 0.038 0.001 0.056 0 0.098-0.002 0.195-0.002 0.292-0.002 3.359 0 6.619 0.939 9.717 2.801-3.099 1.862-6.359 2.803-9.719 2.803C33.496 52.803 33.399 52.801 33.303 52.799zM40.174 63.785c-0.014 0.014-0.027 0.025-0.041 0.039-2.409 2.488-5.448 4.197-9.056 5.1 0.899-3.607 2.608-6.646 5.098-9.059 0.013-0.012 0.026-0.025 0.041-0.039 2.409-2.488 5.448-4.197 9.056-5.098C44.371 58.336 42.662 61.375 40.174 63.785zM52.8 66.752c0.056 3.465-0.885 6.822-2.799 10.01-1.915-3.188-2.854-6.545-2.801-10.01 0-0.02 0-0.037 0-0.055-0.054-3.465 0.886-6.822 2.801-10.01 1.914 3.188 2.854 6.545 2.799 10.01C52.8 66.715 52.8 66.732 52.8 66.752zM68.924 68.924c-3.607-0.902-6.646-2.611-9.058-5.098-0.013-0.014-0.025-0.027-0.038-0.041-2.489-2.41-4.198-5.449-5.099-9.057 3.607 0.9 6.646 2.609 9.056 5.098 0.014 0.014 0.026 0.027 0.04 0.039C66.314 62.277 68.022 65.314 68.924 68.924zM67.042 52.803c-0.096 0-0.192-0.002-0.289-0.004-0.01 0-0.02 0-0.029 0-0.009 0-0.018 0-0.028 0-0.096 0.002-0.192 0.004-0.289 0.004-3.361 0-6.62-0.941-9.718-2.803 3.098-1.861 6.356-2.801 9.717-2.801 0.097 0 0.194 0 0.29 0.002 0.02 0.001 0.039 0.001 0.058 0 0.097-0.002 0.194-0.002 0.291-0.002 3.36 0 6.62 0.939 9.718 2.801C73.664 51.861 70.404 52.803 67.042 52.803z" data-fill-palette-color="accent"></path><circle fill="#ffffff" cx="66.725" cy="50" r="2.3" data-fill-palette-color="accent"></circle><circle fill="#ffffff" cx="33.276" cy="50" r="2.3" data-fill-palette-color="accent"></circle><circle fill="#ffffff" cx="50" cy="66.725" r="2.3" data-fill-palette-color="accent"></circle><circle fill="#ffffff" cx="50" cy="33.275" r="2.3" data-fill-palette-color="accent"></circle><circle fill="#ffffff" cx="61.827" cy="61.825" r="2.3" data-fill-palette-color="accent"></circle><circle fill="#ffffff" cx="38.174" cy="38.174" r="2.3" data-fill-palette-color="accent"></circle><circle fill="#ffffff" cx="38.174" cy="61.825" r="2.3" data-fill-palette-color="accent"></circle><circle fill="#ffffff" cx="61.827" cy="38.174" r="2.3" data-fill-palette-color="accent"></circle></g></svg></g></svg></g></svg></g></svg></g></svg></g><defs></defs></svg><rect width="395.52" height="131.18385048821608" fill="none" stroke="none" visibility="hidden"></rect></g></svg></g></svg>